{
  "accessors": [
    {
      "bufferView": 2,
      "componentType": 5126,
      "count": 329,
      "max": [
        0.9054016470909119,
        0.952048659324646,
        0.5215906500816345
      ],
      "min": [
        -0.9054016470909119,
        -0.9520488977432251,
        -0.5260454416275024
      ],
      "type": "VEC3"
    },
    {
      "bufferView": 2,
      "byteOffset": 3948,
      "componentType": 5126,
      "count": 329,
      "max": [
        1.0,
        1.0,
        0.5743323564529419
      ],
      "min": [
        -1.0,
        -1.0,
        -0.5779345631599426
      ],
      "type": "VEC3"
    },
    {
      "bufferView": 1,
      "componentType": 5126,
      "count": 329,
      "max": [
        1.0,
        1.0000001192092896
      ],
      "min": [
        0.0,
        0.01000000536441803
      ],
      "type": "VEC2"
    },
    {
      "bufferView": 0,
      "componentType": 5125,
      "count": 1626,
      "type": "SCALAR"
    },
    {
      "bufferView": 2,
      "byteOffset": 7896,
      "componentType": 5126,
      "count": 32,
      "max": [
        0.9054016470909119,
        0.952048659324646,
        0.5215906500816345
      ],
      "min": [
        -0.9054016470909119,
        -0.9520488977432251,
        0.5215906500816345
      ],
      "type": "VEC3"
    },
    {
      "bufferView": 2,
      "byteOffset": 8280,
      "componentType": 5126,
      "count": 32,
      "max": [
        0.8186222910881042,
        0.8240998387336731,
        0.5743323564529419
      ],
      "min": [
        -0.8186222910881042,
        -0.8241004347801208,
        0.5664438605308533
      ],
      "type": "VEC3"
    },
    {
      "bufferView": 1,
      "byteOffset": 2632,
      "componentType": 5126,
      "count": 32,
      "max": [
        0.49000000953674316,
        0.49000000953674316
      ],
      "min": [
        0.01000000536441803,
        0.01000000536441803
      ],
      "type": "VEC2"
    },
    {
      "bufferView": 0,
      "byteOffset": 6504,
      "componentType": 5125,
      "count": 90,
      "type": "SCALAR"
    },
    {
      "bufferView": 2,
      "byteOffset": 8664,
      "componentType": 5126,
      "count": 198,
      "max": [
        0.8724039196968079,
        0.9173508882522583,
        0.170003280043602
      ],
      "min": [
        -0.8724039196968079,
        -0.9173508882522583,
        -0.1700032651424408
      ],
      "type": "VEC3"
    },
    {
      "bufferView": 2,
      "byteOffset": 11040,
      "componentType": 5126,
      "count": 198,
      "max": [
        1.0,
        1.0,
        0.7418920397758484
      ],
      "min": [
        -1.0,
        -1.0,
        -0.7418920397758484
      ],
      "type": "VEC3"
    },
    {
      "bufferView": 1,
      "byteOffset": 2888,
      "componentType": 5126,
      "count": 198,
      "max": [
        1.0,
        0.8750001192092896
      ],
      "min": [
        0.0,
        0.6249998807907104
      ],
      "type": "VEC2"
    },
    {
      "bufferView": 0,
      "byteOffset": 6864,
      "componentType": 5125,
      "count": 1152,
      "type": "SCALAR"
    },
    {
      "bufferView": 2,
      "byteOffset": 13416,
      "componentType": 5126,
      "count": 132,
      "max": [
        1.0067874193191528,
        1.0586578845977783,
        0.5801537036895752
      ],
      "min": [
        -1.0067874193191528,
        -1.0586580038070679,
        -0.5847954154014587
      ],
      "type": "VEC3"
    },
    {
      "bufferView": 2,
      "byteOffset": 15000,
      "componentType": 5126,
      "count": 132,
      "max": [
        0.959821879863739,
        0.9558524489402771,
        0.29384830594062805
      ],
      "min": [
        -0.959821879863739,
        -0.9558521509170532,
        -0.3027809262275696
      ],
      "type": "VEC3"
    },
    {
      "bufferView": 1,
      "byteOffset": 4472,
      "componentType": 5126,
      "count": 132,
      "max": [
        1.0,
        1.0000001192092896
      ],
      "min": [
        0.0,
        0.4999999403953552
      ],
      "type": "VEC2"
    },
    {
      "bufferView": 0,
      "byteOffset": 11472,
      "componentType": 5125,
      "count": 384,
      "type": "SCALAR"
    }
  ],
  "asset": {
    "extras": {
      "author": "KDSpritzy (https://sketchfab.com/KDSpritzy)",
      "license": "CC-BY-4.0 (http://creativecommons.org/licenses/by/4.0/)",
      "source": "https://sketchfab.com/3d-models/snow-globe-base-b740e1894bd340bcbfa0fa4e7f0cc1b3",
      "title": "Snow globe Base"
    },
    "generator": "Sketchfab-15.30.0",
    "version": "2.0"
  },
  "bufferViews": [
    {
      "buffer": 0,
      "byteLength": 13008,
      "name": "floatBufferViews",
      "target": 34963
    },
    {
      "buffer": 0,
      "byteLength": 5528,
      "byteOffset": 13008,
      "byteStride": 8,
      "name": "floatBufferViews",
      "target": 34962
    },
    {
      "buffer": 0,
      "byteLength": 16584,
      "byteOffset": 18536,
      "byteStride": 12,
      "name": "floatBufferViews",
      "target": 34962
    }
  ],
  "buffers": [
    {
      "byteLength": 35120,
      "uri": "scene.bin"
    }
  ],
  "materials": [
    {
      "doubleSided": true,
      "name": "Material.005",
      "pbrMetallicRoughness": {
        "baseColorFactor": [
          0.334319,
          0.0123142,
          0.0168212,
          1.0
        ],
        "metallicFactor": 0.0
      }
    },
    {
      "doubleSided": true,
      "name": "Material.001",
      "pbrMetallicRoughness": {
        "baseColorFactor": [
          0.0,
          0.0,
          0.0,
          1.0
        ],
        "metallicFactor": 0.0
      }
    },
    {
      "doubleSided": true,
      "name": "Material.003",
      "pbrMetallicRoughness": {
        "baseColorFactor": [
          0.076573,
          0.0729514,
          0.0626948,
          1.0
        ],
        "metallicFactor": 0.0,
        "roughnessFactor": 0.9855192286268066
      }
    },
    {
      "doubleSided": true,
      "name": "Material.007",
      "pbrMetallicRoughness": {
        "baseColorFactor": [
          0.232015,
          0.266758,
          0.0,
          1.0
        ],
        "metallicFactor": 0.0,
        "roughnessFactor": 0.9463093892904644
      }
    }
  ],
  "meshes": [
    {
      "name": "Cylinder_Material.005_0",
      "primitives": [
        {
          "attributes": {
            "NORMAL": 1,
            "POSITION": 0,
            "TEXCOORD_0": 2
          },
          "indices": 3,
          "material": 0,
          "mode": 4
        }
      ]
    },
    {
      "name": "Cylinder_Material.001_0",
      "primitives": [
        {
          "attributes": {
            "NORMAL": 5,
            "POSITION": 4,
            "TEXCOORD_0": 6
          },
          "indices": 7,
          "material": 1,
          "mode": 4
        }
      ]
    },
    {
      "name": "Cylinder.001_Material.003_0",
      "primitives": [
        {
          "attributes": {
            "NORMAL": 9,
            "POSITION": 8,
            "TEXCOORD_0": 10
          },
          "indices": 11,
          "material": 2,
          "mode": 4
        }
      ]
    },
    {
      "name": "Cylinder.002_Material.007_0",
      "primitives": [
        {
          "attributes": {
            "NORMAL": 13,
            "POSITION": 12,
            "TEXCOORD_0": 14
          },
          "indices": 15,
          "material": 3,
          "mode": 4
        }
      ]
    }
  ],
  "nodes": [
    {
      "children": [
        1
      ],
      "matrix": [
        1.0,
        0.0,
        0.0,
        0.0,
        0.0,
        2.220446049250313e-16,
        -1.0,
        0.0,
        0.0,
        1.0,
        2.220446049250313e-16,
        0.0,
        0.0,
        0.0,
        0.0,
        1.0
      ],
      "name": "Sketchfab_model"
    },
    {
      "children": [
        2
      ],
      "matrix": [
        0.009999999776482582,
        0.0,
        0.0,
        0.0,
        0.0,
        0.0,
        0.009999999776482582,
        0.0,
        0.0,
        -0.009999999776482582,
        0.0,
        0.0,
        0.0,
        0.0,
        0.0,
        1.0
      ],
      "name": "4dde8174529e446a99204f275112630d.fbx"
    },
    {
      "children": [
        3,
        6,
        8,
        10,
        13,
        15,
        18,
        21,
        24,
        27
      ],
      "name": "RootNode"
    },
    {
      "children": [
        4,
        5
      ],
      "matrix": [
        344.6814880371094,
        0.0,
        0.0,
        0.0,
        -0.0,
        -9.724497759153785e-05,
        -344.6814880370957,
        0.0,
        0.0,
        191.0411071777268,
        -5.3898421677236184e-05,
        0.0,
        -7.5523303166846745e-06,
        110.46528625488281,
        0.9363970756530762,
        1.0
      ],
      "name": "Cylinder"
    },
    {
      "mesh": 0,
      "name": "Cylinder_Material.005_0"
    },
    {
      "mesh": 1,
      "name": "Cylinder_Material.001_0"
    },
    {
      "children": [
        7
      ],
      "matrix": [
        333.4376220703125,
        0.0,
        0.0,
        0.0,
        -0.0,
        -9.407274603303391e-05,
        -333.43762207029926,
        0.0,
        0.0,
        184.80914306639892,
        -5.214019783467193e-05,
        0.0,
        -5.575742761720903e-06,
        110.70939636230469,
        3.1852498054504395,
        1.0
      ],
      "name": "Cylinder.001"
    },
    {
      "mesh": 2,
      "name": "Cylinder.001_Material.003_0"
    },
    {
      "children": [
        9
      ],
      "matrix": [
        312.6390075683594,
        0.0,
        0.0,
        0.0,
        -0.0,
        -8.820483356493028e-05,
        -312.6390075683469,
        0.0,
        0.0,
        173.28143310546187,
        -4.888788537885352e-05,
        0.0,
        -7.5523303166846745e-06,
        110.46528625488281,
        0.9363970756530762,
        1.0
      ],
      "name": "Cylinder.002"
    },
    {
      "mesh": 3,
      "name": "Cylinder.002_Material.007_0"
    },
    {
      "children": [
        11
      ],
      "matrix": [
        -1.1528940994861085,
        -9.114795256729086e-13,
        56.93731125744399,
        0.0,
        4.2986257180526636e-06,
        56.9489898681639,
        8.704155543404685e-08,
        0.0,
        -56.937311257443824,
        4.299506290638651e-06,
        -1.152894099486096,
        0.0,
        3.1026535034179688,
        1114.6361083984375,
        13.73283863067627,
        1.0
      ],
      "name": "Sun"
    },
    {
      "children": [
        12
      ],
      "matrix": [
        1.0,
        0.0,
        0.0,
        0.0,
        0.0,
        2.220446049250313e-16,
        1.0,
        0.0,
        0.0,
        -1.0,
        2.220446049250313e-16,
        0.0,
        0.0,
        0.0,
        0.0,
        1.0
      ],
      "name": "Object_11"
    },
    {
      "name": "Object_12"
    },
    {
      "children": [
        14
      ],
      "matrix": [
        0.12604161559096477,
        -33.06193576701163,
        -115.68368654347648,
        0.0,
        0.035872847239153384,
        115.68373319978394,
        -33.06191001641645,
        0.0,
        120.3154040958879,
        0.00014356698356392467,
        0.131047010717781,
        0.0,
        4.264784812927246,
        480.02301025390625,
        1310.1739501953125,
        1.0
      ],
      "name": "Camera.001"
    },
    {
      "name": "Object_14"
    },
    {
      "children": [
        16
      ],
      "matrix": [
        22.856684652543,
        115.275907292974,
        29.807249018579324,
        -0.0,
        -74.50252428524645,
        39.89472825565169,
        -97.15825471399444,
        -0.0,
        111.80507536617816,
        -2.6667740066881266e-06,
        -85.73394482633624,
        -0.0,
        -696.2367553710938,
        372.01104736328125,
        -947.63671875,
        1.0
      ],
      "name": "Area.004"
    },
    {
      "children": [
        17
      ],
      "matrix": [
        1.0,
        0.0,
        0.0,
        0.0,
        0.0,
        2.220446049250313e-16,
        1.0,
        0.0,
        0.0,
        -1.0,
        2.220446049250313e-16,
        0.0,
        0.0,
        0.0,
        0.0,
        1.0
      ],
      "name": "Object_16"
    },
    {
      "name": "Object_17"
    },
    {
      "children": [
        19
      ],
      "matrix": [
        -22.075787984691644,
        115.25804582332215,
        30.382909745138456,
        0.0,
        71.87501543582262,
        39.84298949331705,
        -98.92164811772615,
        0.0,
        -114.11842670834373,
        -1.1075424621807249e-05,
        -82.91677583748456,
        0.0,
        663.5343017578125,
        372.01104736328125,
        -945.2801513671875,
        1.0
      ],
      "name": "Area.003"
    },
    {
      "children": [
        20
      ],
      "matrix": [
        1.0,
        0.0,
        0.0,
        0.0,
        0.0,
        2.220446049250313e-16,
        1.0,
        0.0,
        0.0,
        -1.0,
        2.220446049250313e-16,
        0.0,
        0.0,
        0.0,
        0.0,
        1.0
      ],
      "name": "Object_19"
    },
    {
      "name": "Object_20"
    },
    {
      "children": [
        22
      ],
      "matrix": [
        -23.812642827941783,
        115.27591212422914,
        -29.04921780454007,
        -0.0,
        77.61855750159714,
        39.89471250792563,
        94.6874509732767,
        -0.0,
        -108.96178834796876,
        -6.116467037118608e-07,
        89.31972264362737,
        -0.0,
        663.0360107421875,
        372.01104736328125,
        802.0806274414063,
        1.0
      ],
      "name": "Area.002"
    },
    {
      "children": [
        23
      ],
      "matrix": [
        1.0,
        0.0,
        0.0,
        0.0,
        0.0,
        2.220446049250313e-16,
        1.0,
        0.0,
        0.0,
        -1.0,
        2.220446049250313e-16,
        0.0,
        0.0,
        0.0,
        0.0,
        1.0
      ],
      "name": "Object_22"
    },
    {
      "name": "Object_23"
    },
    {
      "children": [
        25
      ],
      "matrix": [
        23.754130153963953,
        115.25804056596432,
        -29.0895880386846,
        0.0,
        -77.33937165719348,
        39.84300661038245,
        94.71077308261748,
        0.0,
        109.26067443880153,
        -1.4206902972049393e-05,
        89.22060499509007,
        0.0,
        -696.735107421875,
        372.01104736328125,
        799.7235107421875,
        1.0
      ],
      "name": "Area.001"
    },
    {
      "children": [
        26
      ],
      "matrix": [
        1.0,
        0.0,
        0.0,
        0.0,
        0.0,
        2.220446049250313e-16,
        1.0,
        0.0,
        0.0,
        -1.0,
        2.220446049250313e-16,
        0.0,
        0.0,
        0.0,
        0.0,
        1.0
      ],
      "name": "Object_25"
    },
    {
      "name": "Object_26"
    },
    {
      "children": [
        28
      ],
      "matrix": [
        0.009877230703524151,
        119.97135619806441,
        -9.093554758167915,
        0.0,
        -0.13032422443167277,
        9.093561275661719,
        119.97130062795227,
        0.0,
        120.31540447567002,
        1.0493830227260513e-06,
        0.13069794318117997,
        0.0,
        -11.523335456848145,
        194.30081176757813,
        953.8709716796875,
        1.0
      ],
      "name": "Area"
    },
    {
      "children": [
        29
      ],
      "matrix": [
        1.0,
        0.0,
        0.0,
        0.0,
        0.0,
        2.220446049250313e-16,
        1.0,
        0.0,
        0.0,
        -1.0,
        2.220446049250313e-16,
        0.0,
        0.0,
        0.0,
        0.0,
        1.0
      ],
      "name": "Object_28"
    },
    {
      "name": "Object_29"
    }
  ],
  "scene": 0,
  "scenes": [
    {
      "name": "Sketchfab_Scene",
      "nodes": [
        0
      ]
    }
  ]
}
